<svg xmlns="http://www.w3.org/2000/svg" width="40.69" height="34.874" viewBox="0 0 40.69 34.874"><defs><style>.a{fill:#df0051;}</style></defs><g transform="translate(0 -28.395)"><g transform="translate(0 35.038)"><g transform="translate(0 0)"><path class="a" d="M40.294,121.827l-3.6-3.1-5.514-7.3a1.311,1.311,0,0,0-1.042-.5H27.268l-1.042-3.271a1.3,1.3,0,0,0-1.259-.923H21.71a1.252,1.252,0,0,0-1.259,1.006l-.651,3.187H1.52a1.258,1.258,0,0,0-1.3,1.258L0,129.921a1.258,1.258,0,0,0,1.3,1.258H4.689a5.186,5.186,0,0,0,6.209,3.648,5.056,5.056,0,0,0,3.778-3.648h9.248a5.186,5.186,0,0,0,6.209,3.648,5.056,5.056,0,0,0,3.778-3.648h5.471a1.258,1.258,0,0,0,1.3-1.258V122.75A1.152,1.152,0,0,0,40.294,121.827ZM9.683,132.437A2.434,2.434,0,1,1,12.2,130,2.478,2.478,0,0,1,9.683,132.437Zm6.383-11.448H14.676v1.342a1.3,1.3,0,0,1-2.605,0v-1.342H10.681a1.259,1.259,0,1,1,0-2.516h1.389v-1.342a1.3,1.3,0,0,1,2.605,0v1.342h1.389a1.258,1.258,0,0,1,1.3,1.258A1.285,1.285,0,0,1,16.065,120.989Zm12.809,11.448A2.434,2.434,0,1,1,31.393,130,2.451,2.451,0,0,1,28.874,132.437ZM24.749,118.3V113.44h4.689l3.691,4.864Z" transform="translate(0 -106.731)"/></g></g><g transform="translate(22.057 28.395)"><g transform="translate(0 0)"><rect class="a" width="2.605" height="5.427"/></g></g><g transform="translate(26.372 30.264)"><rect class="a" width="5.601" height="2.605" transform="translate(0 3.961) rotate(-45)"/></g><g transform="translate(14.631 30.276)"><g transform="translate(0 0)"><rect class="a" width="2.605" height="5.601" transform="translate(0 1.842) rotate(-45)"/></g></g></g></svg>